<svg width="395.99999999999994" height="102.76333693948517" viewBox="0 0 370.1187214611872 96.04705778062487" class="looka-1j8o68f"><defs id="SvgjsDefs9012"></defs><g id="SvgjsG9013" featurekey="Wg4LIr-0" transform="matrix(5.780817056660259,0,0,5.780817056660259,-1.1561636869828895,-19.684902339961553)" fill="#ffffff"><path d="M2.68 19.98 l-2.48 0 c0.8 -0.16 1.18 -0.76 1.18 -1.14 l0 -12.84 l1.22 0 c0.58 1.06 1.16 2.12 1.74 3.2 c1 1.86 2.26 4.2 3.34 6.14 c1.14 -2 2.4 -4.32 3.4 -6.18 c0.58 -1.08 1.16 -2.14 1.72 -3.16 l1.26 0 l0 12.76 c0 0.74 0.54 1.12 1.24 1.22 l-4 0 c0.48 -0.06 1.24 -0.44 1.3 -1.22 l0 -12.16 c-0.54 0.98 -1.1 1.98 -1.66 3 c-0.96 1.76 -2.18 3.96 -3.2 5.82 c0.22 0.38 0.4 0.74 0.58 1.06 c0.4 0.74 0.66 1.56 0.66 2.04 c0 0.18 0.02 0.54 -0.3 0.94 c-0.3 0.38 -0.78 0.56 -1.24 0.56 c-0.62 0 -1.18 -0.32 -1.26 -0.98 c-0.02 -0.08 -0.02 -0.16 -0.02 -0.24 c0 -0.24 0.06 -0.6 0.22 -1 s0.38 -0.78 0.56 -1.1 l-5.46 -9.98 l0 12.12 c0.06 0.62 0.64 1.06 1.2 1.14 z M6.44 17.96 c-0.12 0.26 -0.18 0.52 -0.18 0.78 c0 0.08 0.02 0.14 0.02 0.22 c0.06 0.54 0.4 0.88 0.78 0.88 c0.24 0 0.5 -0.14 0.68 -0.46 c0.08 -0.14 0.14 -0.32 0.14 -0.5 c0 -0.02 0.02 -0.24 -0.14 -0.66 c-0.16 -0.4 -0.4 -0.84 -0.64 -1.24 l-0.12 -0.18 c-0.02 0.04 -0.04 0.1 -0.1 0.18 c-0.16 0.34 -0.3 0.66 -0.44 0.98 z M14.149999999999999 19.98 c0.52 -0.06 1.28 -0.46 1.28 -1.3 l0 -11.38 c0 -0.86 -0.76 -1.2 -1.28 -1.3 l4.02 0 c-0.7 0.14 -1.26 0.58 -1.26 1.32 l0 11.38 c0.02 0.7 0.56 1.18 1.26 1.28 l-4.02 0 z"></path></g><g id="SvgjsG9014" featurekey="qafomr-0" transform="matrix(2.603879921733381,0,0,2.603879921733381,122.28143902816316,-5.623274563893476)" fill="#ffffff"><path d="M0.78 20 l0 -0.54 l0.34 -0.34 c0.36 -0.36 0.56 -0.82 0.56 -1.36 l0 -9.32 c0 -0.48 -0.22 -0.92 -0.52 -1.28 l-0.5 -0.58 l0 -0.58 l3.18 0 l4.98 11.58 l4.9 -11.58 l3.28 0 l0 0.58 l-0.54 0.58 c-0.32 0.34 -0.52 0.8 -0.52 1.3 l0 9.16 c0 0.46 0.14 0.92 0.5 1.28 l0.52 0.56 l0 0.54 l-4.24 0 l0 -0.54 l0.52 -0.56 c0.32 -0.36 0.48 -0.82 0.48 -1.28 l0 -9.8 l-4.56 10.66 l-2.16 0 l-4.48 -10.42 l0 10 c0 0.52 0.24 1.02 0.62 1.4 l0 0.54 l-2.36 0 z M25.92 20 l-0.54 -0.14 c-0.9 -0.24 -1.88 -0.24 -2.72 0.02 c-0.34 0.1 -0.66 0.12 -0.98 0.12 c-1.96 0 -3.52 -1.54 -3.52 -3.48 c0 -1.9 1.56 -3.46 3.52 -3.46 c0.78 0 1.48 0.24 2.02 0.62 l0 -0.02 s0.16 -2.44 -0.92 -2.74 c-1.12 -0.32 -1.52 0.34 -2.34 1.58 l-1.68 -0.02 c0.52 -1.32 1.54 -2.24 2.98 -2.24 c0.54 0 1.1 0.1 1.64 0.26 c0 0 2.54 0.78 2.54 3.16 l0 6.34 z M19.78 17.02 c0.46 1.5 1.6 2.56 2.76 2.3 c1.12 -0.26 1.64 -1.72 1.18 -3.28 c-0.44 -1.48 -1.74 -2.54 -2.86 -2.26 c-1.14 0.28 -1.54 1.72 -1.08 3.24 z M27.46 20 l0 -0.54 c0.68 -0.74 1.04 -1.66 1.04 -2.58 l0 -7.7 c0 -0.96 -0.36 -1.92 -1.04 -2.6 l0 -0.58 l3.2 0 l0 8.22 l3.7 -2.9 l-0.14 -0.64 l0 -0.34 l3 0 l0 0.34 l-1.54 0.64 l-3.6 2.86 l1.02 -0.04 l3.82 4.18 c0.04 0.06 0.24 0.2 0.34 0.26 l1.4 0.88 l0 0.54 l-4.24 0 l0 -0.54 c0.5 -0.34 0.64 -1.06 0.26 -1.52 l-2.88 -3.54 l-1.14 0.9 l0 1.6 c0 0.94 0.34 1.82 1.02 2.56 l0 0.54 l-4.22 0 z M47 20 l-0.54 -0.14 c-0.9 -0.24 -1.88 -0.24 -2.72 0.02 c-0.34 0.1 -0.66 0.12 -0.98 0.12 c-1.96 0 -3.52 -1.54 -3.52 -3.48 c0 -1.9 1.56 -3.46 3.52 -3.46 c0.78 0 1.48 0.24 2.02 0.62 l0 -0.02 s0.16 -2.44 -0.92 -2.74 c-1.12 -0.32 -1.52 0.34 -2.34 1.58 l-1.68 -0.02 c0.52 -1.32 1.54 -2.24 2.98 -2.24 c0.54 0 1.1 0.1 1.64 0.26 c0 0 2.54 0.78 2.54 3.16 l0 6.34 z M40.86 17.02 c0.46 1.5 1.6 2.56 2.76 2.3 c1.12 -0.26 1.64 -1.72 1.18 -3.28 c-0.44 -1.48 -1.74 -2.54 -2.86 -2.26 c-1.14 0.28 -1.54 1.72 -1.08 3.24 z M52.419999999999995 20 l-3 -7.72 c-0.08 -0.2 -0.16 -0.3 -0.28 -0.44 l-0.88 -0.94 l0 -0.56 l3.78 0 l0 0.56 l-0.26 0.56 c-0.18 0.38 -0.18 0.76 -0.04 1.14 l2.48 6.34 l1.96 -5.04 c0.46 -1.14 0.46 -2.4 0 -3.56 l2.2 0 l3.34 8.64 l2.58 -6.62 c0.18 -0.5 0.08 -1.06 -0.32 -1.4 l0 -0.62 l2.44 0 l0 0.62 l-0.78 0.5 c-0.24 0.16 -0.36 0.36 -0.46 0.62 l-3.06 7.92 l-2.2 0 l-2.66 -6.84 l-2.68 6.84 l-2.16 0 z M74.62 20 l-0.54 -0.14 c-0.9 -0.24 -1.88 -0.24 -2.72 0.02 c-0.34 0.1 -0.66 0.12 -0.98 0.12 c-1.96 0 -3.52 -1.54 -3.52 -3.48 c0 -1.9 1.56 -3.46 3.52 -3.46 c0.78 0 1.48 0.24 2.02 0.62 l0 -0.02 s0.16 -2.44 -0.92 -2.74 c-1.12 -0.32 -1.52 0.34 -2.34 1.58 l-1.68 -0.02 c0.52 -1.32 1.54 -2.24 2.98 -2.24 c0.54 0 1.1 0.1 1.64 0.26 c0 0 2.54 0.78 2.54 3.16 l0 6.34 z M68.47999999999999 17.02 c0.46 1.5 1.6 2.56 2.76 2.3 c1.12 -0.26 1.64 -1.72 1.18 -3.28 c-0.44 -1.48 -1.74 -2.54 -2.86 -2.26 c-1.14 0.28 -1.54 1.72 -1.08 3.24 z M76.26 20 l0 -0.54 c0.66 -0.7 1.02 -1.66 1.02 -2.62 l0 -3.32 c0 -0.98 -0.36 -1.92 -1.02 -2.62 l0 -0.56 l3.18 0 l0 1.12 c0.68 -0.38 1.46 -0.62 2.18 -0.62 c2.34 0 3.62 1.42 3.62 4.88 l0 1.12 c0 0.96 0.38 1.92 1.06 2.62 l0 0.54 l-4.28 0 l0 -0.54 c0.68 -0.7 1.06 -1.66 1.06 -2.62 l0 -2.42 c0 -1.56 -1.42 -3.1 -2.82 -2.72 c-0.5 0.14 -0.82 0.62 -0.82 1.14 l0 4.02 c0 0.94 0.4 1.9 1.04 2.6 l0 0.54 l-4.22 0 z M95.18 20 l-0.54 -0.14 c-0.9 -0.24 -1.88 -0.24 -2.72 0.02 c-0.34 0.1 -0.66 0.12 -0.98 0.12 c-1.96 0 -3.52 -1.54 -3.52 -3.48 c0 -1.9 1.56 -3.46 3.52 -3.46 c0.78 0 1.48 0.24 2.02 0.62 l0 -0.02 s0.16 -2.44 -0.92 -2.74 c-1.12 -0.32 -1.52 0.34 -2.34 1.58 l-1.68 -0.02 c0.52 -1.32 1.54 -2.24 2.98 -2.24 c0.54 0 1.1 0.1 1.64 0.26 c0 0 2.54 0.78 2.54 3.16 l0 6.34 z M89.03999999999999 17.02 c0.46 1.5 1.6 2.56 2.76 2.3 c1.12 -0.26 1.64 -1.72 1.18 -3.28 c-0.44 -1.48 -1.74 -2.54 -2.86 -2.26 c-1.14 0.28 -1.54 1.72 -1.08 3.24 z"></path></g><g id="SvgjsG9015" featurekey="qafomr-1" transform="matrix(2.2654520025762355,0,0,2.2654520025762355,122.4141840302973,42.45259590113235)" fill="#ffffff"><path d="M0.7 20 l0 -0.54 c0.62 -0.74 1.02 -1.68 1.02 -2.62 l0 -7.66 c0 -0.96 -0.4 -1.92 -1.02 -2.62 l0 -0.56 l4.24 0 l0 0.56 c-0.68 0.7 -1.06 1.66 -1.06 2.62 l0 7.66 c0 0.94 0.38 1.88 1.06 2.62 l0 0.54 l-4.24 0 z M6.24 20 l0 -0.54 c0.66 -0.7 1.02 -1.66 1.02 -2.62 l0 -3.32 c0 -0.98 -0.36 -1.92 -1.02 -2.62 l0 -0.56 l3.18 0 l0 1.12 c0.68 -0.38 1.46 -0.62 2.18 -0.62 c2.34 0 3.62 1.42 3.62 4.88 l0 1.12 c0 0.96 0.38 1.92 1.06 2.62 l0 0.54 l-4.28 0 l0 -0.54 c0.68 -0.7 1.06 -1.66 1.06 -2.62 l0 -2.42 c0 -1.56 -1.42 -3.1 -2.82 -2.72 c-0.5 0.14 -0.82 0.62 -0.82 1.14 l0 4.02 c0 0.94 0.4 1.9 1.04 2.6 l0 0.54 l-4.22 0 z M17.68 16.48 l0 -5.32 l-1.48 0 l0 -0.82 l1.48 0 l0 -3.32 l2.18 -1.04 l0 4.36 l1.44 0 l0 0.82 l-1.44 0 l0 5.2 c0 0.78 0.3 1.46 0.68 1.96 c0.22 0.3 0.48 0.52 0.76 0.68 l0 1.1 c-0.46 -0.02 -0.94 -0.12 -1.44 -0.32 c-1.16 -0.48 -2.18 -1.46 -2.18 -3.3 z M30.48 16.94 l1.48 0 c-0.7 1.9 -2.54 3.26 -4.76 3.26 c-2.82 0 -5.06 -2.26 -5.06 -4.98 c0 -2.78 2.24 -5.04 5.06 -5.04 c2.78 0 5.04 2.2 5.08 4.94 l-8.12 0 c0.08 0.24 0.12 0.5 0.2 0.78 c0.64 2.2 2.16 3.78 3.7 3.78 c1.44 0 2.22 -1.36 2.42 -2.74 z M24.060000000000002 14.3 l6.14 0 c-0.68 -2.08 -2.28 -3.4 -3.78 -3.4 c-1.52 0 -2.38 1.46 -2.38 2.96 c0 0.14 0 0.3 0.02 0.44 z M33.3 20 l0 -0.5 c0.68 -0.74 1.02 -1.66 1.02 -2.66 l0 -3.3 c0 -0.98 -0.34 -1.92 -1.02 -2.62 l0 -0.58 l3.22 0 l0 1.04 c0.62 -0.62 1.8 -1.1 2.62 -1.1 c0.86 0 1.46 0.32 1.46 0.32 l-0.42 1.82 s-0.9 -0.74 -2 -0.74 c-1.46 0 -1.66 0.98 -1.66 1.24 l0 3.92 c0 1 0.38 1.92 1.02 2.66 l0 0.5 l-4.24 0 z M41.519999999999996 20 l0 -0.54 c0.66 -0.7 1.02 -1.66 1.02 -2.62 l0 -3.32 c0 -0.98 -0.36 -1.92 -1.02 -2.62 l0 -0.56 l3.18 0 l0 1.12 c0.68 -0.38 1.46 -0.62 2.18 -0.62 c2.34 0 3.62 1.42 3.62 4.88 l0 1.12 c0 0.96 0.38 1.92 1.06 2.62 l0 0.54 l-4.28 0 l0 -0.54 c0.68 -0.7 1.06 -1.66 1.06 -2.62 l0 -2.42 c0 -1.56 -1.42 -3.1 -2.82 -2.72 c-0.5 0.14 -0.82 0.62 -0.82 1.14 l0 4.02 c0 0.94 0.4 1.9 1.04 2.6 l0 0.54 l-4.22 0 z M60.44 20 l-0.54 -0.14 c-0.9 -0.24 -1.88 -0.24 -2.72 0.02 c-0.34 0.1 -0.66 0.12 -0.98 0.12 c-1.96 0 -3.52 -1.54 -3.52 -3.48 c0 -1.9 1.56 -3.46 3.52 -3.46 c0.78 0 1.48 0.24 2.02 0.62 l0 -0.02 s0.16 -2.44 -0.92 -2.74 c-1.12 -0.32 -1.52 0.34 -2.34 1.58 l-1.68 -0.02 c0.52 -1.32 1.54 -2.24 2.98 -2.24 c0.54 0 1.1 0.1 1.64 0.26 c0 0 2.54 0.78 2.54 3.16 l0 6.34 z M54.3 17.02 c0.46 1.5 1.6 2.56 2.76 2.3 c1.12 -0.26 1.64 -1.72 1.18 -3.28 c-0.44 -1.48 -1.74 -2.54 -2.86 -2.26 c-1.14 0.28 -1.54 1.72 -1.08 3.24 z M63.239999999999995 16.48 l0 -5.32 l-1.48 0 l0 -0.82 l1.48 0 l0 -3.32 l2.18 -1.04 l0 4.36 l1.44 0 l0 0.82 l-1.44 0 l0 5.2 c0 0.78 0.3 1.46 0.68 1.96 c0.22 0.3 0.48 0.52 0.76 0.68 l0 1.1 c-0.46 -0.02 -0.94 -0.12 -1.44 -0.32 c-1.16 -0.48 -2.18 -1.46 -2.18 -3.3 z M68.11999999999999 20 l0 -0.54 c0.56 -0.7 0.86 -1.66 0.86 -2.62 l0 -3.32 c0 -0.98 -0.3 -1.92 -0.86 -2.62 l0 -0.56 l2.76 0 l0 6.52 c0 0.94 0.32 1.9 0.9 2.6 l0 0.54 l-3.66 0 z M69.65999999999998 9.46 c-0.76 0 -1.38 -0.64 -1.38 -1.4 c0 -0.78 0.62 -1.4 1.38 -1.4 c0.78 0 1.4 0.62 1.4 1.4 c0 0.76 -0.62 1.4 -1.4 1.4 z M73.05999999999999 15.219999999999999 c0 -3.02 2.44 -4.96 5.22 -4.96 c2.82 0 5.32 1.88 5.32 4.96 c0 3.1 -2.5 4.96 -5.32 4.96 c-2.78 0 -5.22 -1.92 -5.22 -4.96 z M75.61999999999998 15.879999999999999 c0.68 2.32 2.34 3.94 3.96 3.56 c1.58 -0.38 2.32 -2.54 1.6 -4.88 c-0.68 -2.28 -2.5 -3.86 -4.14 -3.5 c-1.58 0.36 -2.12 2.48 -1.42 4.82 z M84.89999999999999 20 l0 -0.54 c0.66 -0.7 1.02 -1.66 1.02 -2.62 l0 -3.32 c0 -0.98 -0.36 -1.92 -1.02 -2.62 l0 -0.56 l3.18 0 l0 1.12 c0.68 -0.38 1.46 -0.62 2.18 -0.62 c2.34 0 3.62 1.42 3.62 4.88 l0 1.12 c0 0.96 0.38 1.92 1.06 2.62 l0 0.54 l-4.28 0 l0 -0.54 c0.68 -0.7 1.06 -1.66 1.06 -2.62 l0 -2.42 c0 -1.56 -1.42 -3.1 -2.82 -2.72 c-0.5 0.14 -0.82 0.62 -0.82 1.14 l0 4.02 c0 0.94 0.4 1.9 1.04 2.6 l0 0.54 l-4.22 0 z M103.82 20 l-0.54 -0.14 c-0.9 -0.24 -1.88 -0.24 -2.72 0.02 c-0.34 0.1 -0.66 0.12 -0.98 0.12 c-1.96 0 -3.52 -1.54 -3.52 -3.48 c0 -1.9 1.56 -3.46 3.52 -3.46 c0.78 0 1.48 0.24 2.02 0.62 l0 -0.02 s0.16 -2.44 -0.92 -2.74 c-1.12 -0.32 -1.52 0.34 -2.34 1.58 l-1.68 -0.02 c0.52 -1.32 1.54 -2.24 2.98 -2.24 c0.54 0 1.1 0.1 1.64 0.26 c0 0 2.54 0.78 2.54 3.16 l0 6.34 z M97.67999999999998 17.02 c0.46 1.5 1.6 2.56 2.76 2.3 c1.12 -0.26 1.64 -1.72 1.18 -3.28 c-0.44 -1.48 -1.74 -2.54 -2.86 -2.26 c-1.14 0.28 -1.54 1.72 -1.08 3.24 z M105.39999999999999 20 l0 -0.54 c0.6 -0.7 0.96 -1.66 0.96 -2.62 l0 -7.66 c0 -0.96 -0.36 -1.9 -0.94 -2.58 l0 -0.6 l2.94 0 l0 10.86 c0 0.94 0.36 1.9 0.98 2.6 l0 0.54 l-3.94 0 z"></path></g></svg>